<?xml version="1.0" encoding="UTF-8"?>
<svg width="700pt" height="700pt" version="1.1" viewBox="0 0 700 700" xmlns="http://www.w3.org/2000/svg">
 <g>
  <path d="m506.69 191.16 11.629 43.438 27.871-103.93c4.1445-15.457-2.9883-93.332-2.9883-93.332s-48.871 77.879-53.012 93.332l-7.5586 28.223c11.441 7.6172 20.531 19.059 24.059 32.273z"/>
  <path d="m202.64 350.19-11.648-43.457-27.848 103.94c-4.1445 15.457 2.9883 93.332 2.9883 93.332s48.871-77.879 53.012-93.332l7.5586-28.223c-11.426-7.6172-20.516-19.062-24.062-32.258z"/>
  <path d="m88.668 224h74.668v37.332h-74.668z"/>
  <path d="m88.668 280h74.668v37.332h-74.668z"/>
  <path d="m256.67 270.67-24.754-92.383-12.766-47.617c-4.1445-15.457-52.996-93.332-52.996-93.332s-7.1484 77.879-3.0039 93.332l37.52 140 20.012 74.668c1.8125 6.7578 5.9375 12.863 11.238 17.715 6.793 6.2344 15.566 10.285 24.266 10.285 15.457 0 24.641-12.543 20.516-28z"/>
  <path d="m488.68 196c-1.8281-6.7578-5.9531-12.863-11.258-17.715-6.793-6.2344-15.566-10.285-24.266-10.285-15.457 0-24.641 12.543-20.496 28l19.992 74.668 24.754 92.383 12.785 47.617c4.1445 15.457 53.012 93.332 53.012 93.332s7.1289-77.879 2.9883-93.332l-37.52-140z"/>
  <path d="m320.68 196c-4.1641-15.457-20.047-28-35.504-28-5.8633 0-10.809 1.8281-14.484 4.9297-5.9922 5.0391-8.5664 13.496-5.9922 23.07l5.9922 22.418 34.012 126.91c4.1445 15.457 20.031 28 35.484 28 15.457 0 24.641-12.543 20.516-28z"/>
  <path d="m444.68 345.33-6.0117-22.398-33.992-126.93c-4.1641-15.457-20.047-28-35.504-28s-24.641 12.543-20.496 28l40.02 149.33c4.1445 15.457 20.031 28 35.484 28 5.8789 0 10.828-1.8281 14.484-4.9297 6.0156-5.0195 8.5938-13.473 6.0156-23.07z"/>
  <path d="m536.67 224h74.668v37.332h-74.668z"/>
  <path d="m536.67 303.04v14.297h74.664v-37.332h-74.664z"/>
 </g>
</svg>
